<?xml version="1.0" encoding="utf-8"?>
<!-- Generator: Adobe Illustrator 16.0.4, SVG Export Plug-In . SVG Version: 6.00 Build 0)  -->
<!DOCTYPE svg PUBLIC "-//W3C//DTD SVG 1.1//EN" "http://www.w3.org/Graphics/SVG/1.1/DTD/svg11.dtd">
<svg version="1.1" id="logo_aurora" xmlns="http://www.w3.org/2000/svg" xmlns:xlink="http://www.w3.org/1999/xlink" x="0px"
	 y="0px" width="150px" height="140px" viewBox="0 0 150 140" enable-background="new 0 0 150 140" xml:space="preserve">
<path id="circle" opacity="0.3" fill-rule="evenodd" clip-rule="evenodd" fill="#FFFFFF" d="M75.5,0c22.092,0,40,17.909,40,40
	c0,22.092-17.908,40-40,40c-22.091,0-40-17.908-40-40C35.5,17.909,53.409,0,75.5,0z"/>
<path id="logo_icon" fill="#FFFFFF" d="M55.1,62.727c-0.417,0-0.832-0.144-1.167-0.429c-0.63-0.536-0.813-1.433-0.445-2.174
	l20.85-41.85c0.307-0.617,0.943-1.044,1.627-0.998c0.688,0.006,1.313,0.404,1.609,1.025l19.951,41.85
	c0.363,0.763,0.146,1.675-0.52,2.195c-0.667,0.518-1.604,0.506-2.255-0.034L82.396,52.084l-4.914,7.986
	c-0.332,0.539-0.91,0.831-1.556,0.856c-0.634-0.008-1.216-0.348-1.534-0.896l-4.404-7.585l-13.839,9.942
	C55.834,62.614,55.467,62.727,55.1,62.727z M70.549,48.027c0.125,0,0.252,0.012,0.377,0.039c0.496,0.106,0.925,0.418,1.18,0.856
	l3.888,6.696l4.421-7.186c0.273-0.443,0.727-0.748,1.24-0.833c0.515-0.084,1.039,0.058,1.441,0.39l7.666,6.349l-14.85-31.154
	l-15.962,32.04l9.548-6.859C69.808,48.144,70.176,48.027,70.549,48.027z"/>
<g id="logo_font">
	<g>
		<path fill="#FFFFFF" d="M29.414,99.358c-0.681-0.623-1.554-1.077-2.621-1.364c-1.067-0.286-2.36-0.43-3.878-0.43
			c-1.146,0-2.145,0.101-2.997,0.301c-0.853,0.201-1.597,0.473-2.234,0.816c-0.638,0.344-1.175,0.745-1.611,1.203
			c-0.437,0.459-0.813,0.945-1.128,1.461l2.213,1.354c0.215-0.357,0.473-0.701,0.773-1.031c0.301-0.329,0.677-0.619,1.128-0.87
			s0.988-0.451,1.611-0.602s1.357-0.226,2.202-0.226c1.002,0,1.865,0.097,2.589,0.29c0.723,0.193,1.317,0.505,1.783,0.935
			c0.465,0.43,0.806,0.978,1.021,1.644s0.322,1.472,0.322,2.417v1.139l-5.049,0.494c-1.59,0.158-2.954,0.416-4.093,0.773
			c-1.139,0.358-2.073,0.842-2.804,1.45s-1.268,1.351-1.611,2.224c-0.344,0.874-0.516,1.898-0.516,3.072
			c0,1.074,0.129,2.045,0.387,2.911s0.648,1.604,1.171,2.213c0.522,0.609,1.178,1.074,1.966,1.396
			c0.788,0.322,1.711,0.483,2.771,0.483c0.759,0,1.472-0.101,2.138-0.301c0.666-0.201,1.311-0.477,1.934-0.827
			s1.235-0.767,1.837-1.246s1.225-0.999,1.869-1.558v3.266h2.771v-15.318c0-1.432-0.154-2.646-0.462-3.642
			C30.588,100.791,30.094,99.981,29.414,99.358z M28.587,114.988c-0.802,0.688-1.525,1.286-2.17,1.794
			c-0.645,0.509-1.246,0.924-1.805,1.246s-1.092,0.562-1.601,0.72c-0.509,0.158-1.028,0.236-1.558,0.236
			c-1.404,0-2.435-0.368-3.094-1.106c-0.659-0.737-0.988-1.923-0.988-3.556c0-0.859,0.132-1.593,0.397-2.202
			c0.265-0.608,0.684-1.117,1.257-1.525c0.573-0.408,1.314-0.73,2.224-0.967c0.909-0.236,2.009-0.419,3.298-0.548l4.039-0.387
			V114.988z M52.821,114.58c-1.39,1.332-2.729,2.371-4.018,3.115c-1.289,0.745-2.442,1.117-3.459,1.117
			c-0.745,0-1.361-0.104-1.848-0.312c-0.487-0.207-0.87-0.565-1.149-1.074s-0.473-1.182-0.58-2.02s-0.161-1.887-0.161-3.147V98.209
			h-2.771v15.061c0,1.304,0.089,2.46,0.269,3.47c0.179,1.01,0.498,1.862,0.956,2.557c0.458,0.695,1.078,1.222,1.858,1.579
			c0.78,0.357,1.779,0.537,2.997,0.537c0.673,0,1.343-0.107,2.009-0.322s1.332-0.508,1.998-0.881
			c0.666-0.372,1.325-0.82,1.977-1.343c0.651-0.522,1.292-1.085,1.923-1.687v3.566h2.771V98.209h-2.771V114.58z M73.425,97.865
			c-0.659,0-1.286,0.101-1.88,0.301c-0.595,0.201-1.182,0.483-1.762,0.849s-1.16,0.81-1.74,1.332s-1.192,1.106-1.837,1.751v-3.889
			h-2.771v22.537h2.771V104.74c0.688-0.688,1.314-1.285,1.88-1.794c0.565-0.509,1.121-0.935,1.665-1.278
			c0.544-0.344,1.099-0.602,1.665-0.773c0.565-0.172,1.192-0.258,1.88-0.258c0.587,0,1.131,0.101,1.633,0.301l0.602-2.621
			c-0.301-0.157-0.623-0.271-0.967-0.344C74.22,97.901,73.84,97.865,73.425,97.865z M95.414,100.83
			c-0.767-1.045-1.748-1.851-2.943-2.417c-1.196-0.565-2.632-0.849-4.308-0.849c-1.719,0-3.18,0.294-4.383,0.881
			c-1.203,0.588-2.185,1.411-2.943,2.471c-0.759,1.061-1.311,2.324-1.654,3.792c-0.344,1.469-0.516,3.076-0.516,4.823
			c0,1.791,0.175,3.413,0.526,4.866c0.351,1.454,0.906,2.704,1.665,3.749c0.759,1.046,1.74,1.852,2.943,2.417
			s2.657,0.849,4.361,0.849s3.158-0.283,4.361-0.849s2.185-1.371,2.943-2.417c0.759-1.045,1.311-2.295,1.654-3.749
			c0.344-1.453,0.516-3.075,0.516-4.866c0-1.818-0.179-3.463-0.537-4.931S96.18,101.876,95.414,100.83z M94.383,113.549
			c-0.236,1.175-0.616,2.17-1.139,2.986c-0.523,0.816-1.203,1.436-2.041,1.858s-1.852,0.634-3.04,0.634
			c-1.218,0-2.249-0.215-3.094-0.645s-1.529-1.053-2.052-1.869c-0.523-0.816-0.902-1.812-1.139-2.986
			c-0.236-1.174-0.354-2.506-0.354-3.996c0-1.489,0.114-2.825,0.344-4.007s0.604-2.184,1.128-3.008
			c0.522-0.823,1.207-1.454,2.052-1.891s1.884-0.655,3.115-0.655c1.218,0,2.245,0.212,3.083,0.634
			c0.838,0.423,1.515,1.042,2.03,1.858s0.888,1.819,1.117,3.008c0.229,1.189,0.344,2.543,0.344,4.061
			C94.737,111.035,94.619,112.375,94.383,113.549z M114.31,97.865c-0.659,0-1.286,0.101-1.88,0.301
			c-0.595,0.201-1.182,0.483-1.762,0.849s-1.16,0.81-1.74,1.332s-1.192,1.106-1.837,1.751v-3.889h-2.771v22.537h2.771V104.74
			c0.688-0.688,1.313-1.285,1.88-1.794c0.565-0.509,1.121-0.935,1.665-1.278s1.099-0.602,1.665-0.773
			c0.565-0.172,1.192-0.258,1.88-0.258c0.587,0,1.132,0.101,1.633,0.301l0.602-2.621c-0.301-0.157-0.623-0.271-0.967-0.344
			C115.104,97.901,114.725,97.865,114.31,97.865z M136.299,101.786c-0.309-0.995-0.803-1.805-1.482-2.428
			c-0.681-0.623-1.555-1.077-2.621-1.364c-1.067-0.286-2.359-0.43-3.878-0.43c-1.146,0-2.146,0.101-2.997,0.301
			c-0.853,0.201-1.598,0.473-2.234,0.816c-0.638,0.344-1.175,0.745-1.611,1.203c-0.438,0.459-0.812,0.945-1.128,1.461l2.213,1.354
			c0.215-0.357,0.473-0.701,0.773-1.031c0.301-0.329,0.677-0.619,1.128-0.87s0.988-0.451,1.611-0.602s1.357-0.226,2.202-0.226
			c1.003,0,1.865,0.097,2.589,0.29c0.723,0.193,1.317,0.505,1.783,0.935c0.465,0.43,0.806,0.978,1.021,1.644
			s0.322,1.472,0.322,2.417v1.139l-5.049,0.494c-1.59,0.158-2.954,0.416-4.093,0.773c-1.139,0.358-2.073,0.842-2.804,1.45
			s-1.268,1.351-1.611,2.224c-0.344,0.874-0.516,1.898-0.516,3.072c0,1.074,0.129,2.045,0.387,2.911s0.647,1.604,1.171,2.213
			c0.522,0.609,1.178,1.074,1.966,1.396s1.712,0.483,2.771,0.483c0.759,0,1.472-0.101,2.138-0.301
			c0.666-0.201,1.311-0.477,1.934-0.827s1.235-0.767,1.837-1.246s1.225-0.999,1.869-1.558v3.266h2.771v-15.318
			C136.761,103.996,136.606,102.781,136.299,101.786z M133.989,114.988c-0.802,0.688-1.525,1.286-2.17,1.794
			c-0.645,0.509-1.246,0.924-1.805,1.246s-1.093,0.562-1.601,0.72c-0.509,0.158-1.027,0.236-1.558,0.236
			c-1.403,0-2.435-0.368-3.094-1.106c-0.659-0.737-0.988-1.923-0.988-3.556c0-0.859,0.132-1.593,0.397-2.202
			c0.265-0.608,0.684-1.117,1.257-1.525s1.313-0.73,2.224-0.967c0.909-0.236,2.009-0.419,3.298-0.548l4.039-0.387V114.988z"/>
	</g>
</g>
<g id="logo_subline" opacity="0.7">
	<g>
		<path fill="#FFFFFF" d="M37.338,129.066l-2.406,7.82h1.106l0.569-1.977H39.1l0.569,1.977h1.106l-2.385-7.82H37.338z
			 M36.86,134.046l0.983-3.416h0.032l0.978,3.416H36.86z M46,129.066h-2.148v7.82H46c0.831,0,1.508-0.312,2.033-0.935
			s0.787-1.429,0.787-2.417v-1.111c0-0.985-0.262-1.791-0.787-2.418C47.508,129.38,46.831,129.066,46,129.066z M47.735,133.531
			c0,0.746-0.159,1.354-0.476,1.823s-0.749,0.705-1.297,0.705h-1.021v-6.166h1.021c0.548,0,0.98,0.234,1.297,0.702
			c0.317,0.469,0.476,1.072,0.476,1.811V133.531z M54.505,135.163l-0.113,0.451H54.36l-0.107-0.457l-1.59-6.091h-1.16l2.347,7.82
			h1.053l2.353-7.82h-1.155L54.505,135.163z M61.432,133.25h2.9v-0.826h-2.9v-2.53h3.33v-0.827h-4.42v7.82h4.453v-0.827h-3.362
			V133.25z M72.779,135.607v-0.682c0-0.467-0.087-0.857-0.26-1.175c-0.174-0.317-0.456-0.542-0.846-0.675
			c0.355-0.172,0.626-0.41,0.814-0.714s0.282-0.66,0.282-1.068c0-0.716-0.202-1.265-0.607-1.647
			c-0.404-0.383-0.978-0.574-1.719-0.574h-2.433v7.814h1.09v-3.373h1.478c0.347,0,0.62,0.127,0.819,0.382s0.298,0.601,0.298,1.038
			v0.662c0,0.266,0.017,0.518,0.051,0.756s0.112,0.417,0.233,0.535h1.123v-0.123c-0.118-0.119-0.201-0.281-0.25-0.486
			C72.803,136.07,72.779,135.848,72.779,135.607z M71.364,132.329c-0.209,0.238-0.535,0.357-0.975,0.357H69.1v-2.788h1.343
			c0.416,0,0.725,0.124,0.929,0.372c0.204,0.247,0.306,0.596,0.306,1.044C71.678,131.752,71.573,132.09,71.364,132.329z
			 M75.452,129.894h1.998v6.993h1.091v-6.993h2.009v-0.827h-5.097V129.894z M83.764,136.887h1.085v-7.82h-1.085V136.887z
			 M91.125,132.51c-0.544-0.187-0.934-0.394-1.17-0.621c-0.236-0.227-0.355-0.508-0.355-0.84c0-0.369,0.111-0.673,0.331-0.911
			c0.22-0.237,0.532-0.356,0.937-0.356c0.427,0,0.757,0.143,0.992,0.428c0.234,0.286,0.352,0.657,0.352,1.113h1.047l0.011-0.032
			c0.015-0.645-0.2-1.194-0.642-1.651c-0.442-0.457-1.025-0.686-1.748-0.686c-0.695,0-1.264,0.198-1.705,0.594
			c-0.443,0.395-0.664,0.9-0.664,1.516c0,0.597,0.199,1.077,0.596,1.439c0.398,0.363,0.969,0.658,1.714,0.883
			c0.519,0.18,0.883,0.387,1.091,0.623c0.207,0.236,0.311,0.539,0.311,0.908c0,0.383-0.115,0.688-0.346,0.915
			s-0.551,0.341-0.959,0.341c-0.455,0-0.822-0.128-1.104-0.385s-0.422-0.653-0.422-1.188h-1.047l-0.012,0.032
			c-0.018,0.752,0.234,1.335,0.756,1.748c0.521,0.414,1.13,0.621,1.828,0.621c0.717,0,1.295-0.188,1.734-0.564
			c0.441-0.377,0.661-0.886,0.661-1.528c0-0.608-0.187-1.105-0.559-1.489C92.381,133.035,91.838,132.731,91.125,132.51z
			 M96.758,136.887h1.085v-7.82h-1.085V136.887z M105.725,134.856l-0.031,0.011l-2.965-5.801h-1.091v7.82h1.091v-5.807l0.032-0.01
			l2.964,5.816h1.086v-7.82h-1.086V134.856z M113.049,132.929v0.789h1.338v1.778c-0.101,0.197-0.254,0.358-0.459,0.485
			c-0.206,0.128-0.495,0.19-0.867,0.19c-0.509,0-0.91-0.174-1.207-0.523c-0.295-0.351-0.442-0.858-0.442-1.525v-2.336
			c0-0.652,0.138-1.15,0.413-1.492c0.276-0.343,0.652-0.514,1.129-0.514c0.473,0,0.828,0.127,1.065,0.384
			c0.238,0.256,0.366,0.63,0.384,1.12h1.031l0.012-0.033c-0.029-0.727-0.255-1.291-0.678-1.694
			c-0.422-0.402-1.033-0.604-1.831-0.604c-0.788,0-1.42,0.25-1.896,0.747c-0.477,0.498-0.715,1.2-0.715,2.105v2.32
			c0,0.921,0.25,1.629,0.752,2.127S112.24,137,113.061,137c0.626,0,1.141-0.126,1.543-0.377c0.403-0.25,0.694-0.533,0.873-0.848
			v-2.847H113.049z"/>
	</g>
</g>
</svg>
